<svg width="232" height="64" viewBox="0 0 232 64" fill="none" xmlns="http://www.w3.org/2000/svg">
  <path d="M37.1906 24.2V20.6H11.9906V53H22.7906V45.8H37.1906V42.2H40.7906V24.2H37.1906ZM29.9906 35H22.7906V31.4H29.9906V35ZM58.7906 42.2V20.6H47.9906V53H73.1906V42.2H58.7906ZM101.981 24.2V20.6H87.5813V24.2H80.3813V53H91.1813V42.2H98.3813V53H109.181V24.2H101.981ZM91.1813 38.6V31.4H98.3813V38.6H91.1813ZM137.981 20.6V24.2H134.381V27.8H130.781V24.2H127.181V20.6H116.381V27.8H119.981V31.4H123.581V35H127.181V53H137.981V35H141.581V31.4H145.181V27.8H148.781V20.6H137.981ZM177.6 20.6V53H188.4V20.6H177.6ZM195.6 20.6V31.4H206.4V53H217.2V31.4H228V20.6H195.6Z" fill="black"/>
  <path d="M29.1906 18.2V14.6H3.99063V47H14.7906V39.8H29.1906V36.2H32.7906V18.2H29.1906ZM21.9906 29H14.7906V25.4H21.9906V29ZM50.7906 36.2V14.6H39.9906V47H65.1906V36.2H50.7906ZM93.9813 18.2V14.6H79.5813V18.2H72.3813V47H83.1813V36.2H90.3813V47H101.181V18.2H93.9813ZM83.1813 32.6V25.4H90.3813V32.6H83.1813ZM129.981 14.6V18.2H126.381V21.8H122.781V18.2H119.181V14.6H108.381V21.8H111.981V25.4H115.581V29H119.181V47H129.981V29H133.581V25.4H137.181V21.8H140.781V14.6H129.981ZM169.6 14.6V47H180.4V14.6H169.6ZM187.6 14.6V25.4H198.4V47H209.2V25.4H220V14.6H187.6Z" fill="#B577DA"/>
  <path d="M29.1906 36.2H14.7906V32.6H25.5906V21.8H14.7906V18.2H29.1906V14.6H3.99063V47H14.7906V39.8H29.1906V36.2ZM11.1906 18.2V43.4H7.59063V18.2H11.1906ZM32.7906 18.2H29.1906V36.2H32.7906V18.2ZM14.7906 25.4H21.9906V29H14.7906V25.4ZM65.1906 36.2H50.7906V14.6H39.9906V47H65.1906V36.2ZM47.1906 43.4H43.5906V18.2H47.1906V43.4ZM61.5906 39.8V43.4H50.7906V39.8H61.5906ZM101.181 18.2H93.9813V14.6H79.5813V18.2H72.3813V47H83.1813V36.2H90.3813V47H101.181V18.2ZM83.1813 18.2H90.3813V21.8H83.1813V18.2ZM79.5813 21.8V43.4H75.9813V21.8H79.5813ZM97.5813 21.8V43.4H93.9813V21.8H97.5813ZM90.3813 32.6H83.1813V25.4H90.3813V32.6ZM111.981 18.2H119.181V14.6H108.381V21.8H111.981V18.2ZM140.781 14.6H129.981V18.2H137.181V21.8H140.781V14.6ZM119.181 21.8H122.781V18.2H119.181V21.8ZM129.981 21.8V18.2H126.381V21.8H129.981ZM115.581 21.8H111.981V25.4H115.581V21.8ZM122.781 25.4H126.381V21.8H122.781V25.4ZM133.581 21.8V25.4H137.181V21.8H133.581ZM119.181 25.4H115.581V29H119.181V25.4ZM129.981 25.4V29H133.581V25.4H129.981ZM126.381 29V43.4H122.781V29H119.181V47H129.981V29H126.381ZM180.4 14.6H169.6V47H180.4V14.6ZM176.8 18.2V43.4H173.2V18.2H176.8ZM220 14.6H187.6V25.4H198.4V47H209.2V25.4H220V14.6ZM216.4 18.2V21.8H191.2V18.2H216.4ZM205.6 25.4V43.4H202V25.4H205.6Z" fill="white"/>
  </svg>
  