<svg xmlns="http://www.w3.org/2000/svg">
   <symbol id="twitter" width="26" height="22" viewBox="0 0 26 22"><g><g><path d="M17.513.601c2.034-.036 3.117.705 4.15 1.648.879-.076 2.02-.566 2.692-.908l.653-.357c-.384 1.037-.904 1.85-1.704 2.466-.178.136-.354.321-.577.408v.013c1.14-.011 2.08-.526 2.973-.805v.013c-.469.745-1.104 1.502-1.781 2.044l-.82.651c.015 1.207-.018 2.359-.244 3.373-1.311 5.895-4.787 9.898-10.288 11.612-1.976.615-5.168.868-7.432.306-1.122-.278-2.136-.593-3.088-1.008a12.305 12.305 0 0 1-1.486-.767L.1 19.009c.51.015 1.108.156 1.678.064.517-.084 1.023-.062 1.5-.166 1.188-.261 2.243-.606 3.151-1.137.441-.259 1.11-.56 1.423-.933-.59.01-1.125-.127-1.563-.281-1.7-.6-2.688-1.703-3.332-3.36.515.057 1.998.19 2.345-.102-.648-.036-1.271-.411-1.717-.69-1.367-.855-2.481-2.289-2.473-4.496l.538.255c.344.145.693.222 1.102.307.173.036.52.137.718.063h-.026c-.264-.307-.695-.512-.96-.843-.878-1.09-1.7-2.766-1.18-4.764a6.1 6.1 0 0 1 .564-1.367l.026.012c.102.214.33.371.474.55.448.555 1 1.054 1.563 1.494 1.918 1.5 3.645 2.422 6.42 3.104.703.174 1.516.306 2.357.307-.236-.687-.16-1.8.025-2.465.468-1.673 1.483-2.88 2.973-3.525a6.31 6.31 0 0 1 1.166-.359l.64-.076z"/></g></g></symbol>
   <symbol id="facebook" xmlns="http://www.w3.org/2000/svg" width="12" height="26" viewBox="0 0 12 26"><g><g><path d="M12.09.199V4.32s-3.038-.303-3.799.861c-.416.636-.169 2.5-.206 3.838h4.03c-.341 1.564-.585 2.624-.836 3.978H8.063v12.804H2.48V13.047H.106V9.02h2.349c.12-2.946.165-5.864 1.629-7.35C5.728-.001 7.297.199 12.089.199z"/></g></g></symbol>
   <symbol id="pinterest" xmlns="http://www.w3.org/2000/svg" width="20" height="26" viewBox="0 0 20 26"><g><g><path d="M8.05 16.854c-.208.833-.419 1.706-.637 2.56-.215.842-.405 1.696-.718 2.47-.519 1.281-1.178 2.52-2.043 3.521-.575.667-.453.4-.626.365-.132-.027-.143-.157-.17-.345-.14-1.018-.044-2.195.008-3.34.06-1.303.334-2.387.589-3.47.484-2.063.946-4.087 1.435-6.164.032-.138.12-.366.09-.445-.222-.577-.366-1.095-.429-1.7a5.41 5.41 0 0 1 .14-1.944c.276-1.058.912-1.995 1.893-2.338.624-.216 1.315-.118 1.735.132.432.259.729.667.867 1.246.148.615.039 1.35-.08 1.891-.267 1.219-.618 2.134-.937 3.31-.158.583-.337 1.182-.19 1.812.137.578.438.976.848 1.275.426.31.93.48 1.625.455 1.228-.043 2.081-.828 2.651-1.568.913-1.185 1.465-2.784 1.675-4.686.068-.614.117-1.319.07-2.014-.088-1.284-.49-2.317-1.127-3.117-.606-.762-1.466-1.37-2.512-1.71-1.037-.34-2.472-.452-3.747-.234-2.318.397-3.952 1.714-4.915 3.533a7.079 7.079 0 0 0-.837 3.41c0 1.05.26 1.865.678 2.5.133.201.328.367.458.597.185.326-.028.811-.12 1.164-.11.425-.12 1.012-.617 1.022-.206.004-.464-.146-.638-.243-1.305-.721-2.097-2.033-2.422-3.734a8.935 8.935 0 0 1 0-3.238c.19-.967.544-1.858.937-2.581a9.238 9.238 0 0 1 3.459-3.563C5.559 1.023 6.818.56 8.35.337A16.432 16.432 0 0 1 9.955.206a9.638 9.638 0 0 1 4.326.809 8.85 8.85 0 0 1 2.98 2.146c.838.915 1.448 1.98 1.834 3.309.202.692.398 1.432.398 2.287 0 .858-.181 1.613-.308 2.368-.474 2.828-1.819 5.141-3.838 6.458a6.636 6.636 0 0 1-1.754.81c-.667.193-1.428.339-2.243.282a4.599 4.599 0 0 1-1.983-.577c-.54-.305-.994-.679-1.316-1.244z"/></g></g></symbol>
   <symbol id="instagram" xmlns="http://www.w3.org/2000/svg" width="26" height="26" viewBox="0 0 26 26"><g><g><path d="M22.7 25.8H3.5a3.2 3.2 0 0 1-3.2-3.2V3.4A3.2 3.2 0 0 1 3.5.2h19.2a3.2 3.2 0 0 1 3.2 3.2v19.2a3.2 3.2 0 0 1-3.2 3.2zM13.1 8.04a4.957 4.957 0 0 0-4.498 2.88h-.005l-.022.054a4.908 4.908 0 0 0-.128.322c-.02.052-.04.103-.057.155a4.998 4.998 0 0 0-.095.34c-.014.054-.03.106-.042.16a4.99 4.99 0 0 0-.061.368c-.007.05-.017.099-.023.15a4.96 4.96 0 1 0 9.861 0c-.005-.051-.015-.1-.022-.15a4.985 4.985 0 0 0-.061-.368c-.012-.054-.028-.106-.042-.16a5.004 5.004 0 0 0-.095-.34c-.017-.052-.038-.103-.057-.155a4.916 4.916 0 0 0-.128-.322l-.022-.055h-.005A4.957 4.957 0 0 0 13.1 8.04zm9.92-3.68a1.28 1.28 0 0 0-1.28-1.28h-2.56a1.28 1.28 0 0 0-1.28 1.28v2.56c0 .707.573 1.28 1.28 1.28h2.56a1.28 1.28 0 0 0 1.28-1.28zm0 6.56h-2.36a7.84 7.84 0 0 1-7.56 9.92 7.84 7.84 0 0 1-7.56-9.92H3.18v10.72c0 .707.573 1.28 1.28 1.28h17.28a1.28 1.28 0 0 0 1.28-1.28z"/></g></g></symbol>

</svg>
