
<svg fill="#333">
  
  <symbol id="bids" viewBox="0 0 35318 25210">
   <g id="Layer_x0020_1" >
      <path class="fil0" d="M0 24106l1655 0 0 -1103c0,-608 249,-1161 648,-1559l3 0c400,-399 952,-648 1557,-648l11587 0c608,0 1161,249 1559,648 399,399 648,951 648,1559l0 1103 1655 0 0 1104 -19311 0 0 -1104zm13128 -21119l5081 3320 906 -1387 26 -40c144,-244 184,-528 129,-790 -57,-274 -222,-530 -475,-696l-51 -33 -2 -2 -3181 -2078c-253,-166 -555,-213 -830,-155 -275,57 -531,222 -697,476l-905 1386zm4478 4242l-5082 -3320 -3623 5546 5082 3319 3623 -5545zm-4224 6466l-5082 -3320 -906 1387 -1 -1c-165,254 -212,555 -154,831 58,276 221,532 474,697l2 0 3234 2113 -1 1c254,165 554,212 831,154 275,-57 531,-222 697,-476l906 -1387zm-6911 -2536l6639 -10163c331,-506 842,-834 1395,-950 552,-116 1151,-22 1658,310l3234 2113 50 33 3 3c477,332 785,826 897,1359 115,551 20,1148 -310,1655l-1 2 1 1 -2388 3655 16127 8621 38 22 5 2c1305,852 1669,2127 1430,3298 -90,444 -270,873 -517,1252 -247,379 -568,716 -939,977 -975,688 -2288,866 -3593,14l-29 -18 -12 -10 -14374 -11304 -2387 3654c-332,507 -843,835 -1396,950 -551,116 -1148,22 -1656,-310l-2 0 -3234 -2113 1 -1c-508,-332 -835,-843 -951,-1395 -115,-551 -21,-1149 310,-1656l0 -2zm10575 -1058l-656 1004 14436 11353c856,545 1707,433 2334,-9 253,-179 476,-414 650,-680 174,-267 300,-565 362,-869 154,-757 -90,-1587 -952,-2152l-16174 -8646zm-14288 14004l13793 0 0 -1103c0,-302 -125,-579 -325,-779 -199,-199 -476,-325 -779,-325l-11587 0c-303,0 -580,124 -780,323l1 1c-199,199 -325,476 -325,779l0 1103z" />
   </g>
  </symbol>
  
  <symbol id="messages" viewBox="0 0 64 64">
    <g id="Glyph_copy_2" >
      <path d="M63.125,9.977c-0.902-1.321-2.419-2.194-4.131-2.194H5.006c-1.676,0-3.158,0.842-4.067,2.117l31.16,25.982L63.125,9.977z" />
      <path d="M0.006,14.328v36.889c0,2.75,2.25,5,5,5h53.988c2.75,0,5-2.25,5-5V14.461L32.099,41.09L0.006,14.328z" />
    </g>
  </symbol>
  
  <symbol id="money" viewBox="">
    <g data-name="Camada 1" id="Camada_1-2">
      <path d="M21.5,23.26c-.19-.48-.7-1.85-.81-2.35a32.44,32.44,0,0,1,0-5.63,9.91,9.91,0,0,0-9-9.86L14.93.79A.5.5,0,0,0,14.52,0H7a.5.5,0,0,0-.41.79L9.84,5.43A9.92,9.92,0,0,0,.9,15.31a32.12,32.12,0,0,1,0,5.6A21.83,21.83,0,0,1,0,23.25a.5.5,0,0,0,.46.7H21a.5.5,0,0,0,.47-.68ZM13.56,1,10.77,5,8,1ZM1.25,22.94a15.11,15.11,0,0,0,.64-1.82,33.63,33.63,0,0,0,0-5.85,8.9,8.9,0,0,1,17.8,0,33.87,33.87,0,0,0,0,5.88,18.43,18.43,0,0,0,.6,1.82Z" />
      <path d="M12.6,15.22a6.94,6.94,0,0,0-1.42-.45,7.76,7.76,0,0,1-1-.3,1.29,1.29,0,0,1-.5-.32.66.66,0,0,1-.16-.45.69.69,0,0,1,.31-.61,1.54,1.54,0,0,1,.87-.21,1.52,1.52,0,0,1,.83.21.81.81,0,0,1,.4.54.29.29,0,0,0,.29.18h.95a.2.2,0,0,0,.21-.21,1.59,1.59,0,0,0-.26-.76,2.22,2.22,0,0,0-.71-.69,2.76,2.76,0,0,0-1.12-.39v-.71a.22.22,0,0,0-.24-.24h-.62a.24.24,0,0,0-.17.06.23.23,0,0,0-.07.17v.69a2.63,2.63,0,0,0-1.54.66,1.76,1.76,0,0,0-.56,1.32A1.63,1.63,0,0,0,8.65,15a4.26,4.26,0,0,0,1.73.74q.71.19,1.07.33a1.5,1.5,0,0,1,.54.31.61.61,0,0,1,.18.45.73.73,0,0,1-.35.64,1.9,1.9,0,0,1-1,.24,1.78,1.78,0,0,1-1-.23A1.07,1.07,0,0,1,9.34,17a.47.47,0,0,0-.12-.15.32.32,0,0,0-.19,0h-.9a.21.21,0,0,0-.16.06.2.2,0,0,0-.06.15,1.69,1.69,0,0,0,.29.87,2.1,2.1,0,0,0,.78.69,3.22,3.22,0,0,0,1.23.35v.7a.23.23,0,0,0,.07.18.24.24,0,0,0,.17.06h.62a.22.22,0,0,0,.24-.24v-.7A3,3,0,0,0,13,18.23a1.77,1.77,0,0,0,.63-1.41,1.73,1.73,0,0,0-.25-1A1.84,1.84,0,0,0,12.6,15.22Z" />
    </g>
  </symbol>
  
  <symbol id="search" viewBox="0 0 413.12 413.12">
    <g>
      <path d="M289.537,49.617c-66.143-66.156-173.774-66.156-239.926,0c-66.148,66.146-66.148,173.774,0,239.916
      c63.881,63.884,166.438,66.059,232.972,6.562l13.45,13.45c-3.351,8.578-1.596,18.678,5.325,25.604l70.973,70.973
      c9.334,9.334,24.465,9.329,33.789,0c9.334-9.329,9.334-24.46,0-33.794l-70.967-70.959c-6.927-6.926-17.035-8.681-25.604-5.33
      l-13.45-13.455C355.604,216.045,353.42,113.49,289.537,49.617z M69.888,269.269c-54.969-54.969-54.969-144.409,0-199.378
      c54.969-54.974,144.411-54.969,199.38,0s54.969,144.413,0,199.382S124.856,324.237,69.888,269.269z" />
      <path d="M103.381,102.149c24.01-24.007,51.914-41.439,81.259-52.304c-33.244-1.899-68.849,11.038-96.17,38.354
      c-27.699,27.699-40.599,63.92-38.247,97.57C61.009,155.56,78.725,126.806,103.381,102.149z" />
    </g>
  </symbol>
  

</svg>