<?xml version="1.0" ?><svg viewBox="0 0 88 88" xmlns="http://www.w3.org/2000/svg" fill="#fff"><title/><g id="Workspace"><rect height="8" rx="1" ry="1" width="82" x="3" y="39"/><path d="M12.09,49,2.04,83.72a.9909.9909,0,0,0,.16.88A1.0137,1.0137,0,0,0,3,85H9a.9872.9872,0,0,0,.96-.72L16.7,61l3.47-12Z"/><path d="M85.96,83.72,75.91,49H67.83L71.3,61l6.74,23.28A.9872.9872,0,0,0,79,85h6a1.0137,1.0137,0,0,0,.8-.4A.9909.9909,0,0,0,85.96,83.72Z"/><path d="M22.25,49,18.78,61H69.22L65.75,49ZM46,56H42a1,1,0,0,1,0-2h4a1,1,0,0,1,0,2Z"/><path d="M82,36a5,5,0,0,0-10,0v1H82Z"/><rect height="3" width="24" x="32" y="29"/><path d="M69,37a4.9412,4.9412,0,0,0,1-3V30a1.0029,1.0029,0,0,0-1-1H58v4a1.0029,1.0029,0,0,1-1,1H31a1.0029,1.0029,0,0,1-1-1V29H19a1.0029,1.0029,0,0,0-1,1v4a4.9412,4.9412,0,0,0,1,3Z"/><path d="M49,20v2h2V20Z"/><path d="M37,20v2h2V20Z"/><path d="M49,12H48a1,1,0,0,1-1-1V10H41v1a1,1,0,0,1-1,1H39v6h1a1,1,0,0,1,1,1v1h6V19a1,1,0,0,1,1-1h1Z"/><path d="M39,10V8H37v2Z"/><path d="M49,10h2V8H49Z"/><path d="M65,4a1.0029,1.0029,0,0,0-1-1H24a1.0029,1.0029,0,0,0-1,1V27H65ZM53,11a1,1,0,0,1-1,1H51v6h1a1,1,0,0,1,1,1v4a1,1,0,0,1-1,1H48a1,1,0,0,1-1-1V22H41v1a1,1,0,0,1-1,1H36a1,1,0,0,1-1-1V19a1,1,0,0,1,1-1h1V12H36a1,1,0,0,1-1-1V7a1,1,0,0,1,1-1h4a1,1,0,0,1,1,1V8h6V7a1,1,0,0,1,1-1h4a1,1,0,0,1,1,1Z"/></g></svg>
